<svg width="96" height="40" viewBox="0 0 96 40" fill="none" xmlns="http://www.w3.org/2000/svg">
<path fill-rule="evenodd" clip-rule="evenodd" d="M64 12.3334C64.3682 12.3334 64.6667 12.6319 64.6667 13V17.3906L66.5286 15.5286C66.789 15.2683 67.2111 15.2683 67.4714 15.5286C67.7318 15.789 67.7318 16.2111 67.4714 16.4714L65.6095 18.3334H70C70.3682 18.3334 70.6667 18.6319 70.6667 19C70.6667 19.3682 70.3682 19.6667 70 19.6667H65.6095L67.4714 21.5286C67.7318 21.789 67.7318 22.2111 67.4714 22.4714C67.2111 22.7318 66.789 22.7318 66.5286 22.4714L64.6667 20.6095V25C64.6667 25.3682 64.3682 25.6667 64 25.6667C63.6318 25.6667 63.3333 25.3682 63.3333 25V20.6095L61.4714 22.4714C61.2111 22.7318 60.789 22.7318 60.5286 22.4714C60.2683 22.2111 60.2683 21.789 60.5286 21.5286L62.3905 19.6667H58C57.6318 19.6667 57.3333 19.3682 57.3333 19C57.3333 18.6319 57.6318 18.3334 58 18.3334H62.3905L60.5286 16.4714C60.2683 16.2111 60.2683 15.789 60.5286 15.5286C60.789 15.2683 61.2111 15.2683 61.4714 15.5286L63.3333 17.3906V13C63.3333 12.6319 63.6318 12.3334 64 12.3334Z" fill="white"/>
<g clip-path="url(#clip0_118_2166)">
<path fill-rule="evenodd" clip-rule="evenodd" d="M75 25.6666C75.1841 25.6666 75.3333 25.8159 75.3333 26V28.1952L76.2643 27.2643C76.3945 27.1341 76.6055 27.1341 76.7357 27.2643C76.8659 27.3944 76.8659 27.6055 76.7357 27.7357L75.8047 28.6666H78C78.1841 28.6666 78.3333 28.8159 78.3333 29C78.3333 29.1841 78.1841 29.3333 78 29.3333H75.8047L76.7357 30.2643C76.8659 30.3944 76.8659 30.6055 76.7357 30.7357C76.6055 30.8658 76.3945 30.8658 76.2643 30.7357L75.3333 29.8047V32C75.3333 32.1841 75.1841 32.3333 75 32.3333C74.8159 32.3333 74.6667 32.1841 74.6667 32V29.8047L73.7357 30.7357C73.6055 30.8658 73.3945 30.8658 73.2643 30.7357C73.1341 30.6055 73.1341 30.3944 73.2643 30.2643L74.1953 29.3333H72C71.8159 29.3333 71.6667 29.1841 71.6667 29C71.6667 28.8159 71.8159 28.6666 72 28.6666H74.1953L73.2643 27.7357C73.1341 27.6055 73.1341 27.3944 73.2643 27.2643C73.3945 27.1341 73.6055 27.1341 73.7357 27.2643L74.6667 28.1952V26C74.6667 25.8159 74.8159 25.6666 75 25.6666Z" fill="white"/>
</g>
<circle cx="79.5" cy="20.5" r="1.5" fill="white"/>
<circle cx="2" cy="35" r="1" fill="white"/>
<circle cx="8" cy="31" r="2" fill="white"/>
<defs>
<clipPath id="clip0_118_2166">
<rect width="8" height="8" fill="white" transform="translate(71 25)"/>
</clipPath>
</defs>
</svg>
