<svg width="90" height="40" viewBox="0 0 90 40" fill="none" xmlns="http://www.w3.org/2000/svg">
<path fill-rule="evenodd" clip-rule="evenodd" d="M83 29C83.2761 29 83.5 29.2239 83.5 29.5V32.7929L84.8964 31.3964C85.0917 31.2012 85.4083 31.2012 85.6036 31.3964C85.7988 31.5917 85.7988 31.9083 85.6036 32.1036L84.2071 33.5H87.5C87.7761 33.5 88 33.7239 88 34C88 34.2761 87.7761 34.5 87.5 34.5H84.2071L85.6036 35.8964C85.7988 36.0917 85.7988 36.4083 85.6036 36.6036C85.4083 36.7988 85.0917 36.7988 84.8964 36.6036L83.5 35.2071V38.5C83.5 38.7761 83.2761 39 83 39C82.7239 39 82.5 38.7761 82.5 38.5V35.2071L81.1036 36.6036C80.9083 36.7988 80.5917 36.7988 80.3964 36.6036C80.2012 36.4083 80.2012 36.0917 80.3964 35.8964L81.7929 34.5H78.5C78.2239 34.5 78 34.2761 78 34C78 33.7239 78.2239 33.5 78.5 33.5H81.7929L80.3964 32.1036C80.2012 31.9083 80.2012 31.5917 80.3964 31.3964C80.5917 31.2012 80.9083 31.2012 81.1036 31.3964L82.5 32.7929V29.5C82.5 29.2239 82.7239 29 83 29Z" fill="white"/>
<g opacity="0.4" clip-path="url(#clip0_118_1549)">
<path fill-rule="evenodd" clip-rule="evenodd" d="M74 22.8334C74.2301 22.8334 74.4167 23.0199 74.4167 23.25V25.9941L75.5804 24.8304C75.7431 24.6677 76.0069 24.6677 76.1696 24.8304C76.3324 24.9931 76.3324 25.257 76.1696 25.4197L75.0059 26.5834H77.75C77.9801 26.5834 78.1667 26.7699 78.1667 27C78.1667 27.2302 77.9801 27.4167 77.75 27.4167H75.0059L76.1696 28.5804C76.3324 28.7431 76.3324 29.007 76.1696 29.1697C76.0069 29.3324 75.7431 29.3324 75.5804 29.1697L74.4167 28.006V30.75C74.4167 30.9802 74.2301 31.1667 74 31.1667C73.7699 31.1667 73.5833 30.9802 73.5833 30.75V28.006L72.4196 29.1697C72.2569 29.3324 71.9931 29.3324 71.8304 29.1697C71.6677 29.007 71.6677 28.7431 71.8304 28.5804L72.9941 27.4167H70.25C70.0199 27.4167 69.8333 27.2302 69.8333 27C69.8333 26.7699 70.0199 26.5834 70.25 26.5834H72.9941L71.8304 25.4197C71.6677 25.257 71.6677 24.9931 71.8304 24.8304C71.9931 24.6677 72.2569 24.6677 72.4196 24.8304L73.5833 25.9941V23.25C73.5833 23.0199 73.7699 22.8334 74 22.8334Z" fill="white"/>
</g>
<g clip-path="url(#clip1_118_1549)">
<path fill-rule="evenodd" clip-rule="evenodd" d="M16 18.6666C16.1841 18.6666 16.3334 18.8159 16.3334 19V21.1952L17.2643 20.2643C17.3945 20.1341 17.6055 20.1341 17.7357 20.2643C17.8659 20.3944 17.8659 20.6055 17.7357 20.7357L16.8048 21.6666H19C19.1841 21.6666 19.3334 21.8159 19.3334 22C19.3334 22.1841 19.1841 22.3333 19 22.3333H16.8048L17.7357 23.2643C17.8659 23.3944 17.8659 23.6055 17.7357 23.7357C17.6055 23.8658 17.3945 23.8658 17.2643 23.7357L16.3334 22.8047V25C16.3334 25.1841 16.1841 25.3333 16 25.3333C15.8159 25.3333 15.6667 25.1841 15.6667 25V22.8047L14.7357 23.7357C14.6055 23.8658 14.3945 23.8658 14.2643 23.7357C14.1341 23.6055 14.1341 23.3944 14.2643 23.2643L15.1953 22.3333H13C12.8159 22.3333 12.6667 22.1841 12.6667 22C12.6667 21.8159 12.8159 21.6666 13 21.6666H15.1953L14.2643 20.7357C14.1341 20.6055 14.1341 20.3944 14.2643 20.2643C14.3945 20.1341 14.6055 20.1341 14.7357 20.2643L15.6667 21.1952V19C15.6667 18.8159 15.8159 18.6666 16 18.6666Z" fill="white"/>
</g>
<circle cx="39" cy="7" r="1" fill="white"/>
<defs>
<clipPath id="clip0_118_1549">
<rect width="10" height="10" fill="white" transform="translate(69 22)"/>
</clipPath>
<clipPath id="clip1_118_1549">
<rect width="8" height="8" fill="white" transform="translate(12 18)"/>
</clipPath>
</defs>
</svg>
